<mxfile host="app.diagrams.net" modified="2023-09-08T18:43:09.370Z" agent="Mozilla/5.0 (Macintosh; Intel Mac OS X 10_15_7) AppleWebKit/537.36 (KHTML, like Gecko) Chrome/116.0.0.0 Safari/537.36" etag="g4v_-dXvu_F2O5do1QyT" version="21.7.2" type="device">
  <diagram name="Page-1" id="wqdkFg036trEDnxu9Tmw">
    <mxGraphModel dx="1247" dy="723" grid="1" gridSize="5" guides="1" tooltips="1" connect="1" arrows="1" fold="1" page="1" pageScale="1" pageWidth="850" pageHeight="1100" math="0" shadow="0">
      <root>
        <mxCell id="0" />
        <mxCell id="1" parent="0" />
        <mxCell id="gtYnEdTjVLz-L2qjGS6A-710" value="" style="rounded=1;whiteSpace=wrap;html=1;dashed=1;fillColor=none;fillStyle=dashed;strokeColor=#FF0000;strokeWidth=2;opacity=75;movable=1;resizable=1;rotatable=1;deletable=1;editable=1;locked=0;connectable=1;" parent="1" vertex="1">
          <mxGeometry x="140" y="140" width="335" height="180" as="geometry" />
        </mxCell>
        <mxCell id="gtYnEdTjVLz-L2qjGS6A-780" value="" style="rounded=1;whiteSpace=wrap;html=1;dashed=1;fillColor=none;fillStyle=dashed;strokeColor=#00AB00;strokeWidth=2;opacity=75;movable=1;resizable=1;rotatable=1;deletable=1;editable=1;locked=0;connectable=1;" parent="1" vertex="1">
          <mxGeometry x="365" y="160" width="335" height="180" as="geometry" />
        </mxCell>
        <mxCell id="gtYnEdTjVLz-L2qjGS6A-1" value="" style="triangle;whiteSpace=wrap;html=1;" parent="1" vertex="1">
          <mxGeometry x="220" y="200" width="60" height="80" as="geometry" />
        </mxCell>
        <mxCell id="gtYnEdTjVLz-L2qjGS6A-2" value="" style="endArrow=none;html=1;rounded=0;exitX=1;exitY=0.5;exitDx=0;exitDy=0;" parent="1" source="gtYnEdTjVLz-L2qjGS6A-1" edge="1">
          <mxGeometry width="50" height="50" relative="1" as="geometry">
            <mxPoint x="500" y="490" as="sourcePoint" />
            <mxPoint x="320" y="240" as="targetPoint" />
          </mxGeometry>
        </mxCell>
        <mxCell id="gtYnEdTjVLz-L2qjGS6A-4" value="" style="triangle;whiteSpace=wrap;html=1;rotation=-180;" parent="1" vertex="1">
          <mxGeometry x="320" y="200" width="60" height="80" as="geometry" />
        </mxCell>
        <mxCell id="gtYnEdTjVLz-L2qjGS6A-11" value="" style="endArrow=none;html=1;rounded=0;exitX=0;exitY=0.75;exitDx=0;exitDy=0;" parent="1" source="gtYnEdTjVLz-L2qjGS6A-4" edge="1">
          <mxGeometry width="50" height="50" relative="1" as="geometry">
            <mxPoint x="460" y="490" as="sourcePoint" />
            <mxPoint x="420" y="220" as="targetPoint" />
          </mxGeometry>
        </mxCell>
        <mxCell id="gtYnEdTjVLz-L2qjGS6A-12" value="" style="endArrow=none;html=1;rounded=0;exitX=0;exitY=0.25;exitDx=0;exitDy=0;" parent="1" source="gtYnEdTjVLz-L2qjGS6A-4" edge="1">
          <mxGeometry width="50" height="50" relative="1" as="geometry">
            <mxPoint x="390" y="230" as="sourcePoint" />
            <mxPoint x="420" y="260" as="targetPoint" />
          </mxGeometry>
        </mxCell>
        <mxCell id="gtYnEdTjVLz-L2qjGS6A-13" value="" style="endArrow=none;html=1;rounded=0;exitX=0;exitY=0.25;exitDx=0;exitDy=0;" parent="1" source="gtYnEdTjVLz-L2qjGS6A-1" edge="1">
          <mxGeometry width="50" height="50" relative="1" as="geometry">
            <mxPoint x="430" y="270" as="sourcePoint" />
            <mxPoint x="160" y="200" as="targetPoint" />
          </mxGeometry>
        </mxCell>
        <mxCell id="gtYnEdTjVLz-L2qjGS6A-14" value="" style="endArrow=none;html=1;rounded=0;exitX=0;exitY=0.75;exitDx=0;exitDy=0;entryX=1;entryY=0.5;entryDx=0;entryDy=0;" parent="1" source="gtYnEdTjVLz-L2qjGS6A-1" target="gtYnEdTjVLz-L2qjGS6A-312" edge="1">
          <mxGeometry width="50" height="50" relative="1" as="geometry">
            <mxPoint x="220" y="254.58" as="sourcePoint" />
            <mxPoint x="160" y="280" as="targetPoint" />
          </mxGeometry>
        </mxCell>
        <mxCell id="gtYnEdTjVLz-L2qjGS6A-294" value="" style="triangle;whiteSpace=wrap;html=1;" parent="1" vertex="1">
          <mxGeometry x="460" y="200" width="60" height="80" as="geometry" />
        </mxCell>
        <mxCell id="gtYnEdTjVLz-L2qjGS6A-295" value="" style="endArrow=none;html=1;rounded=0;exitX=1;exitY=0.5;exitDx=0;exitDy=0;" parent="1" source="gtYnEdTjVLz-L2qjGS6A-294" edge="1">
          <mxGeometry width="50" height="50" relative="1" as="geometry">
            <mxPoint x="740" y="490" as="sourcePoint" />
            <mxPoint x="560" y="240" as="targetPoint" />
          </mxGeometry>
        </mxCell>
        <mxCell id="gtYnEdTjVLz-L2qjGS6A-296" value="" style="triangle;whiteSpace=wrap;html=1;rotation=-180;" parent="1" vertex="1">
          <mxGeometry x="560" y="200" width="60" height="80" as="geometry" />
        </mxCell>
        <mxCell id="gtYnEdTjVLz-L2qjGS6A-297" value="" style="endArrow=none;html=1;rounded=0;exitX=0;exitY=0.75;exitDx=0;exitDy=0;entryX=1;entryY=0.5;entryDx=0;entryDy=0;" parent="1" source="gtYnEdTjVLz-L2qjGS6A-296" target="gtYnEdTjVLz-L2qjGS6A-319" edge="1">
          <mxGeometry width="50" height="50" relative="1" as="geometry">
            <mxPoint x="700" y="490" as="sourcePoint" />
            <mxPoint x="660" y="220" as="targetPoint" />
          </mxGeometry>
        </mxCell>
        <mxCell id="gtYnEdTjVLz-L2qjGS6A-298" value="" style="endArrow=none;html=1;rounded=0;exitX=0;exitY=0.25;exitDx=0;exitDy=0;" parent="1" source="gtYnEdTjVLz-L2qjGS6A-296" edge="1">
          <mxGeometry width="50" height="50" relative="1" as="geometry">
            <mxPoint x="630" y="230" as="sourcePoint" />
            <mxPoint x="680" y="300" as="targetPoint" />
          </mxGeometry>
        </mxCell>
        <mxCell id="gtYnEdTjVLz-L2qjGS6A-299" value="" style="endArrow=none;html=1;rounded=0;exitX=0;exitY=0.25;exitDx=0;exitDy=0;" parent="1" source="gtYnEdTjVLz-L2qjGS6A-294" edge="1">
          <mxGeometry width="50" height="50" relative="1" as="geometry">
            <mxPoint x="670" y="270" as="sourcePoint" />
            <mxPoint x="420" y="220" as="targetPoint" />
          </mxGeometry>
        </mxCell>
        <mxCell id="gtYnEdTjVLz-L2qjGS6A-300" value="" style="endArrow=none;html=1;rounded=0;exitX=0;exitY=0.75;exitDx=0;exitDy=0;" parent="1" source="gtYnEdTjVLz-L2qjGS6A-294" edge="1">
          <mxGeometry width="50" height="50" relative="1" as="geometry">
            <mxPoint x="460" y="254.58" as="sourcePoint" />
            <mxPoint x="420" y="260" as="targetPoint" />
          </mxGeometry>
        </mxCell>
        <mxCell id="gtYnEdTjVLz-L2qjGS6A-308" value="" style="triangle;whiteSpace=wrap;html=1;rotation=-180;" parent="1" vertex="1">
          <mxGeometry x="100" y="140" width="60" height="80" as="geometry" />
        </mxCell>
        <mxCell id="gtYnEdTjVLz-L2qjGS6A-311" value="" style="endArrow=none;html=1;rounded=0;exitX=1;exitY=0.5;exitDx=0;exitDy=0;" parent="1" source="gtYnEdTjVLz-L2qjGS6A-308" edge="1">
          <mxGeometry width="50" height="50" relative="1" as="geometry">
            <mxPoint x="790" y="230" as="sourcePoint" />
            <mxPoint x="60" y="180" as="targetPoint" />
          </mxGeometry>
        </mxCell>
        <mxCell id="gtYnEdTjVLz-L2qjGS6A-312" value="" style="triangle;whiteSpace=wrap;html=1;" parent="1" vertex="1">
          <mxGeometry x="100" y="260" width="60" height="80" as="geometry" />
        </mxCell>
        <mxCell id="gtYnEdTjVLz-L2qjGS6A-313" value="" style="endArrow=none;html=1;rounded=0;exitX=1;exitY=0.5;exitDx=0;exitDy=0;" parent="1" edge="1">
          <mxGeometry width="50" height="50" relative="1" as="geometry">
            <mxPoint x="100" y="280" as="sourcePoint" />
            <mxPoint x="60" y="280" as="targetPoint" />
          </mxGeometry>
        </mxCell>
        <mxCell id="gtYnEdTjVLz-L2qjGS6A-314" value="" style="endArrow=none;html=1;rounded=0;exitX=1;exitY=0.5;exitDx=0;exitDy=0;" parent="1" edge="1">
          <mxGeometry width="50" height="50" relative="1" as="geometry">
            <mxPoint x="100" y="320" as="sourcePoint" />
            <mxPoint x="60" y="320" as="targetPoint" />
          </mxGeometry>
        </mxCell>
        <mxCell id="gtYnEdTjVLz-L2qjGS6A-319" value="" style="triangle;whiteSpace=wrap;html=1;rotation=-180;" parent="1" vertex="1">
          <mxGeometry x="680" y="140" width="60" height="80" as="geometry" />
        </mxCell>
        <mxCell id="gtYnEdTjVLz-L2qjGS6A-320" value="" style="endArrow=none;html=1;rounded=0;exitX=0;exitY=0.75;exitDx=0;exitDy=0;" parent="1" source="gtYnEdTjVLz-L2qjGS6A-319" edge="1">
          <mxGeometry width="50" height="50" relative="1" as="geometry">
            <mxPoint x="820" y="440" as="sourcePoint" />
            <mxPoint x="780" y="160" as="targetPoint" />
          </mxGeometry>
        </mxCell>
        <mxCell id="gtYnEdTjVLz-L2qjGS6A-321" value="" style="endArrow=none;html=1;rounded=0;exitX=0;exitY=0.25;exitDx=0;exitDy=0;" parent="1" source="gtYnEdTjVLz-L2qjGS6A-319" edge="1">
          <mxGeometry width="50" height="50" relative="1" as="geometry">
            <mxPoint x="750" y="180" as="sourcePoint" />
            <mxPoint x="780" y="200" as="targetPoint" />
          </mxGeometry>
        </mxCell>
        <mxCell id="gtYnEdTjVLz-L2qjGS6A-326" value="" style="endArrow=none;html=1;rounded=0;exitX=0;exitY=0.25;exitDx=0;exitDy=0;" parent="1" edge="1">
          <mxGeometry width="50" height="50" relative="1" as="geometry">
            <mxPoint x="160" y="160" as="sourcePoint" />
            <mxPoint x="200" y="140" as="targetPoint" />
          </mxGeometry>
        </mxCell>
        <mxCell id="gtYnEdTjVLz-L2qjGS6A-334" value="&lt;font style=&quot;font-size: 20px;&quot;&gt;A&lt;/font&gt;" style="text;html=1;strokeColor=none;fillColor=none;align=center;verticalAlign=middle;whiteSpace=wrap;rounded=0;" parent="1" vertex="1">
          <mxGeometry x="230" y="230" width="20" height="20" as="geometry" />
        </mxCell>
        <mxCell id="gtYnEdTjVLz-L2qjGS6A-335" value="&lt;font style=&quot;font-size: 20px;&quot;&gt;B&lt;/font&gt;" style="text;html=1;strokeColor=none;fillColor=none;align=center;verticalAlign=middle;whiteSpace=wrap;rounded=0;" parent="1" vertex="1">
          <mxGeometry x="350" y="230" width="20" height="20" as="geometry" />
        </mxCell>
        <mxCell id="gtYnEdTjVLz-L2qjGS6A-336" value="&lt;font style=&quot;font-size: 20px;&quot;&gt;C&lt;/font&gt;" style="text;html=1;strokeColor=none;fillColor=none;align=center;verticalAlign=middle;whiteSpace=wrap;rounded=0;" parent="1" vertex="1">
          <mxGeometry x="470" y="230" width="20" height="20" as="geometry" />
        </mxCell>
        <mxCell id="gtYnEdTjVLz-L2qjGS6A-337" value="&lt;font style=&quot;font-size: 20px;&quot;&gt;D&lt;/font&gt;" style="text;html=1;strokeColor=none;fillColor=none;align=center;verticalAlign=middle;whiteSpace=wrap;rounded=0;" parent="1" vertex="1">
          <mxGeometry x="590" y="230" width="20" height="20" as="geometry" />
        </mxCell>
        <mxCell id="gtYnEdTjVLz-L2qjGS6A-338" value="&lt;font style=&quot;font-size: 20px;&quot;&gt;X&lt;/font&gt;" style="text;html=1;strokeColor=none;fillColor=none;align=center;verticalAlign=middle;whiteSpace=wrap;rounded=0;" parent="1" vertex="1">
          <mxGeometry x="125" y="170" width="20" height="20" as="geometry" />
        </mxCell>
        <mxCell id="gtYnEdTjVLz-L2qjGS6A-339" value="&lt;font style=&quot;font-size: 20px;&quot;&gt;Y&lt;/font&gt;" style="text;html=1;strokeColor=none;fillColor=none;align=center;verticalAlign=middle;whiteSpace=wrap;rounded=0;" parent="1" vertex="1">
          <mxGeometry x="115" y="290" width="20" height="20" as="geometry" />
        </mxCell>
        <mxCell id="gtYnEdTjVLz-L2qjGS6A-340" value="&lt;font style=&quot;font-size: 20px;&quot;&gt;Z&lt;/font&gt;" style="text;html=1;strokeColor=none;fillColor=none;align=center;verticalAlign=middle;whiteSpace=wrap;rounded=0;" parent="1" vertex="1">
          <mxGeometry x="705" y="170" width="20" height="20" as="geometry" />
        </mxCell>
        <mxCell id="gtYnEdTjVLz-L2qjGS6A-370" value="" style="endArrow=none;html=1;rounded=0;" parent="1" edge="1">
          <mxGeometry width="50" height="50" relative="1" as="geometry">
            <mxPoint x="60" y="290" as="sourcePoint" />
            <mxPoint x="60" y="270" as="targetPoint" />
          </mxGeometry>
        </mxCell>
        <mxCell id="gtYnEdTjVLz-L2qjGS6A-371" value="" style="endArrow=none;html=1;rounded=0;" parent="1" edge="1">
          <mxGeometry width="50" height="50" relative="1" as="geometry">
            <mxPoint x="60" y="330" as="sourcePoint" />
            <mxPoint x="60" y="310" as="targetPoint" />
          </mxGeometry>
        </mxCell>
        <mxCell id="gtYnEdTjVLz-L2qjGS6A-373" value="" style="endArrow=none;html=1;rounded=0;" parent="1" edge="1">
          <mxGeometry width="50" height="50" relative="1" as="geometry">
            <mxPoint x="780" y="170" as="sourcePoint" />
            <mxPoint x="780" y="150" as="targetPoint" />
          </mxGeometry>
        </mxCell>
        <mxCell id="gtYnEdTjVLz-L2qjGS6A-375" value="" style="endArrow=none;html=1;rounded=0;" parent="1" edge="1">
          <mxGeometry width="50" height="50" relative="1" as="geometry">
            <mxPoint x="780" y="210" as="sourcePoint" />
            <mxPoint x="780" y="190" as="targetPoint" />
          </mxGeometry>
        </mxCell>
        <mxCell id="gtYnEdTjVLz-L2qjGS6A-429" value="0" style="text;html=1;strokeColor=none;fillColor=none;align=center;verticalAlign=middle;whiteSpace=wrap;rounded=0;" parent="1" vertex="1">
          <mxGeometry x="265" y="235" width="10" height="10" as="geometry" />
        </mxCell>
        <mxCell id="gtYnEdTjVLz-L2qjGS6A-430" value="1&lt;br&gt;" style="text;html=1;strokeColor=none;fillColor=none;align=center;verticalAlign=middle;whiteSpace=wrap;rounded=0;" parent="1" vertex="1">
          <mxGeometry x="220" y="215" width="10" height="10" as="geometry" />
        </mxCell>
        <mxCell id="gtYnEdTjVLz-L2qjGS6A-431" value="1&lt;br&gt;" style="text;html=1;strokeColor=none;fillColor=none;align=center;verticalAlign=middle;whiteSpace=wrap;rounded=0;" parent="1" vertex="1">
          <mxGeometry x="150" y="195" width="10" height="10" as="geometry" />
        </mxCell>
        <mxCell id="gtYnEdTjVLz-L2qjGS6A-432" value="1&lt;br&gt;" style="text;html=1;strokeColor=none;fillColor=none;align=center;verticalAlign=middle;whiteSpace=wrap;rounded=0;" parent="1" vertex="1">
          <mxGeometry x="100" y="275" width="10" height="10" as="geometry" />
        </mxCell>
        <mxCell id="gtYnEdTjVLz-L2qjGS6A-433" value="1&lt;br&gt;" style="text;html=1;strokeColor=none;fillColor=none;align=center;verticalAlign=middle;whiteSpace=wrap;rounded=0;" parent="1" vertex="1">
          <mxGeometry x="370" y="255" width="10" height="10" as="geometry" />
        </mxCell>
        <mxCell id="gtYnEdTjVLz-L2qjGS6A-434" value="1&lt;br&gt;" style="text;html=1;strokeColor=none;fillColor=none;align=center;verticalAlign=middle;whiteSpace=wrap;rounded=0;" parent="1" vertex="1">
          <mxGeometry x="460" y="215" width="10" height="10" as="geometry" />
        </mxCell>
        <mxCell id="gtYnEdTjVLz-L2qjGS6A-435" value="1&lt;br&gt;" style="text;html=1;strokeColor=none;fillColor=none;align=center;verticalAlign=middle;whiteSpace=wrap;rounded=0;" parent="1" vertex="1">
          <mxGeometry x="610" y="255" width="10" height="10" as="geometry" />
        </mxCell>
        <mxCell id="gtYnEdTjVLz-L2qjGS6A-436" value="1&lt;br&gt;" style="text;html=1;strokeColor=none;fillColor=none;align=center;verticalAlign=middle;whiteSpace=wrap;rounded=0;" parent="1" vertex="1">
          <mxGeometry x="730" y="195" width="10" height="10" as="geometry" />
        </mxCell>
        <mxCell id="gtYnEdTjVLz-L2qjGS6A-438" value="0" style="text;html=1;strokeColor=none;fillColor=none;align=center;verticalAlign=middle;whiteSpace=wrap;rounded=0;" parent="1" vertex="1">
          <mxGeometry x="105" y="175" width="10" height="10" as="geometry" />
        </mxCell>
        <mxCell id="gtYnEdTjVLz-L2qjGS6A-439" value="0" style="text;html=1;strokeColor=none;fillColor=none;align=center;verticalAlign=middle;whiteSpace=wrap;rounded=0;" parent="1" vertex="1">
          <mxGeometry x="145" y="295" width="10" height="10" as="geometry" />
        </mxCell>
        <mxCell id="gtYnEdTjVLz-L2qjGS6A-440" value="0" style="text;html=1;strokeColor=none;fillColor=none;align=center;verticalAlign=middle;whiteSpace=wrap;rounded=0;" parent="1" vertex="1">
          <mxGeometry x="325" y="235" width="10" height="10" as="geometry" />
        </mxCell>
        <mxCell id="gtYnEdTjVLz-L2qjGS6A-441" value="0" style="text;html=1;strokeColor=none;fillColor=none;align=center;verticalAlign=middle;whiteSpace=wrap;rounded=0;" parent="1" vertex="1">
          <mxGeometry x="505" y="235" width="10" height="10" as="geometry" />
        </mxCell>
        <mxCell id="gtYnEdTjVLz-L2qjGS6A-442" value="0" style="text;html=1;strokeColor=none;fillColor=none;align=center;verticalAlign=middle;whiteSpace=wrap;rounded=0;" parent="1" vertex="1">
          <mxGeometry x="565" y="235" width="10" height="10" as="geometry" />
        </mxCell>
        <mxCell id="gtYnEdTjVLz-L2qjGS6A-443" value="0" style="text;html=1;strokeColor=none;fillColor=none;align=center;verticalAlign=middle;whiteSpace=wrap;rounded=0;" parent="1" vertex="1">
          <mxGeometry x="685" y="175" width="10" height="10" as="geometry" />
        </mxCell>
        <mxCell id="gtYnEdTjVLz-L2qjGS6A-445" value="2" style="text;html=1;strokeColor=none;fillColor=none;align=center;verticalAlign=middle;whiteSpace=wrap;rounded=0;" parent="1" vertex="1">
          <mxGeometry x="730" y="155" width="10" height="10" as="geometry" />
        </mxCell>
        <mxCell id="gtYnEdTjVLz-L2qjGS6A-447" value="2" style="text;html=1;strokeColor=none;fillColor=none;align=center;verticalAlign=middle;whiteSpace=wrap;rounded=0;" parent="1" vertex="1">
          <mxGeometry x="610" y="215" width="10" height="10" as="geometry" />
        </mxCell>
        <mxCell id="gtYnEdTjVLz-L2qjGS6A-448" value="2" style="text;html=1;strokeColor=none;fillColor=none;align=center;verticalAlign=middle;whiteSpace=wrap;rounded=0;" parent="1" vertex="1">
          <mxGeometry x="460" y="255" width="10" height="10" as="geometry" />
        </mxCell>
        <mxCell id="gtYnEdTjVLz-L2qjGS6A-449" value="2" style="text;html=1;strokeColor=none;fillColor=none;align=center;verticalAlign=middle;whiteSpace=wrap;rounded=0;" parent="1" vertex="1">
          <mxGeometry x="370" y="215" width="10" height="10" as="geometry" />
        </mxCell>
        <mxCell id="gtYnEdTjVLz-L2qjGS6A-450" value="2" style="text;html=1;strokeColor=none;fillColor=none;align=center;verticalAlign=middle;whiteSpace=wrap;rounded=0;" parent="1" vertex="1">
          <mxGeometry x="220" y="255" width="10" height="10" as="geometry" />
        </mxCell>
        <mxCell id="gtYnEdTjVLz-L2qjGS6A-451" value="2" style="text;html=1;strokeColor=none;fillColor=none;align=center;verticalAlign=middle;whiteSpace=wrap;rounded=0;" parent="1" vertex="1">
          <mxGeometry x="100" y="315" width="10" height="10" as="geometry" />
        </mxCell>
        <mxCell id="gtYnEdTjVLz-L2qjGS6A-452" value="2" style="text;html=1;strokeColor=none;fillColor=none;align=center;verticalAlign=middle;whiteSpace=wrap;rounded=0;" parent="1" vertex="1">
          <mxGeometry x="150" y="155" width="10" height="10" as="geometry" />
        </mxCell>
        <mxCell id="gtYnEdTjVLz-L2qjGS6A-847" value="" style="rounded=1;whiteSpace=wrap;html=1;dashed=1;fillColor=none;fillStyle=dashed;strokeColor=#00AB00;strokeWidth=2;opacity=75;movable=0;resizable=0;rotatable=0;deletable=0;editable=0;locked=1;connectable=0;" parent="1" vertex="1">
          <mxGeometry x="365" y="460" width="335" height="180" as="geometry" />
        </mxCell>
        <mxCell id="gtYnEdTjVLz-L2qjGS6A-853" value="" style="endArrow=none;html=1;rounded=0;exitX=0;exitY=0.5;exitDx=0;exitDy=0;" parent="1" source="gtYnEdTjVLz-L2qjGS6A-906" edge="1">
          <mxGeometry width="50" height="50" relative="1" as="geometry">
            <mxPoint x="300" y="555" as="sourcePoint" />
            <mxPoint x="160" y="500" as="targetPoint" />
          </mxGeometry>
        </mxCell>
        <mxCell id="gtYnEdTjVLz-L2qjGS6A-854" value="" style="endArrow=none;html=1;rounded=0;exitX=0;exitY=0.5;exitDx=0;exitDy=0;entryX=1;entryY=0.5;entryDx=0;entryDy=0;" parent="1" source="gtYnEdTjVLz-L2qjGS6A-892" target="gtYnEdTjVLz-L2qjGS6A-864" edge="1">
          <mxGeometry width="50" height="50" relative="1" as="geometry">
            <mxPoint x="220" y="560" as="sourcePoint" />
            <mxPoint x="160" y="580" as="targetPoint" />
          </mxGeometry>
        </mxCell>
        <mxCell id="gtYnEdTjVLz-L2qjGS6A-855" value="" style="triangle;whiteSpace=wrap;html=1;" parent="1" vertex="1">
          <mxGeometry x="460" y="500" width="60" height="80" as="geometry" />
        </mxCell>
        <mxCell id="gtYnEdTjVLz-L2qjGS6A-856" value="" style="endArrow=none;html=1;rounded=0;exitX=1;exitY=0.5;exitDx=0;exitDy=0;" parent="1" source="gtYnEdTjVLz-L2qjGS6A-855" edge="1">
          <mxGeometry width="50" height="50" relative="1" as="geometry">
            <mxPoint x="740" y="790" as="sourcePoint" />
            <mxPoint x="560" y="540" as="targetPoint" />
          </mxGeometry>
        </mxCell>
        <mxCell id="gtYnEdTjVLz-L2qjGS6A-857" value="" style="triangle;whiteSpace=wrap;html=1;rotation=-180;" parent="1" vertex="1">
          <mxGeometry x="560" y="500" width="60" height="80" as="geometry" />
        </mxCell>
        <mxCell id="gtYnEdTjVLz-L2qjGS6A-858" value="" style="endArrow=none;html=1;rounded=0;exitX=0;exitY=0.75;exitDx=0;exitDy=0;entryX=1;entryY=0.5;entryDx=0;entryDy=0;" parent="1" source="gtYnEdTjVLz-L2qjGS6A-857" target="gtYnEdTjVLz-L2qjGS6A-867" edge="1">
          <mxGeometry width="50" height="50" relative="1" as="geometry">
            <mxPoint x="700" y="790" as="sourcePoint" />
            <mxPoint x="660" y="520" as="targetPoint" />
          </mxGeometry>
        </mxCell>
        <mxCell id="gtYnEdTjVLz-L2qjGS6A-859" value="" style="endArrow=none;html=1;rounded=0;exitX=0;exitY=0.25;exitDx=0;exitDy=0;" parent="1" source="gtYnEdTjVLz-L2qjGS6A-857" edge="1">
          <mxGeometry width="50" height="50" relative="1" as="geometry">
            <mxPoint x="630" y="530" as="sourcePoint" />
            <mxPoint x="680" y="600" as="targetPoint" />
          </mxGeometry>
        </mxCell>
        <mxCell id="gtYnEdTjVLz-L2qjGS6A-862" value="" style="triangle;whiteSpace=wrap;html=1;rotation=-180;" parent="1" vertex="1">
          <mxGeometry x="100" y="440" width="60" height="80" as="geometry" />
        </mxCell>
        <mxCell id="gtYnEdTjVLz-L2qjGS6A-863" value="" style="endArrow=none;html=1;rounded=0;exitX=1;exitY=0.5;exitDx=0;exitDy=0;" parent="1" source="gtYnEdTjVLz-L2qjGS6A-862" edge="1">
          <mxGeometry width="50" height="50" relative="1" as="geometry">
            <mxPoint x="790" y="530" as="sourcePoint" />
            <mxPoint x="60" y="480" as="targetPoint" />
          </mxGeometry>
        </mxCell>
        <mxCell id="gtYnEdTjVLz-L2qjGS6A-864" value="" style="triangle;whiteSpace=wrap;html=1;" parent="1" vertex="1">
          <mxGeometry x="100" y="560" width="60" height="80" as="geometry" />
        </mxCell>
        <mxCell id="gtYnEdTjVLz-L2qjGS6A-865" value="" style="endArrow=none;html=1;rounded=0;exitX=1;exitY=0.5;exitDx=0;exitDy=0;" parent="1" edge="1">
          <mxGeometry width="50" height="50" relative="1" as="geometry">
            <mxPoint x="100" y="580" as="sourcePoint" />
            <mxPoint x="60" y="580" as="targetPoint" />
          </mxGeometry>
        </mxCell>
        <mxCell id="gtYnEdTjVLz-L2qjGS6A-866" value="" style="endArrow=none;html=1;rounded=0;exitX=1;exitY=0.5;exitDx=0;exitDy=0;" parent="1" edge="1">
          <mxGeometry width="50" height="50" relative="1" as="geometry">
            <mxPoint x="100" y="620" as="sourcePoint" />
            <mxPoint x="60" y="620" as="targetPoint" />
          </mxGeometry>
        </mxCell>
        <mxCell id="gtYnEdTjVLz-L2qjGS6A-867" value="" style="triangle;whiteSpace=wrap;html=1;rotation=-180;" parent="1" vertex="1">
          <mxGeometry x="680" y="440" width="60" height="80" as="geometry" />
        </mxCell>
        <mxCell id="gtYnEdTjVLz-L2qjGS6A-868" value="" style="endArrow=none;html=1;rounded=0;exitX=0;exitY=0.75;exitDx=0;exitDy=0;" parent="1" source="gtYnEdTjVLz-L2qjGS6A-867" edge="1">
          <mxGeometry width="50" height="50" relative="1" as="geometry">
            <mxPoint x="820" y="740" as="sourcePoint" />
            <mxPoint x="780" y="460" as="targetPoint" />
          </mxGeometry>
        </mxCell>
        <mxCell id="gtYnEdTjVLz-L2qjGS6A-869" value="" style="endArrow=none;html=1;rounded=0;exitX=0;exitY=0.25;exitDx=0;exitDy=0;" parent="1" source="gtYnEdTjVLz-L2qjGS6A-867" edge="1">
          <mxGeometry width="50" height="50" relative="1" as="geometry">
            <mxPoint x="750" y="480" as="sourcePoint" />
            <mxPoint x="780" y="500" as="targetPoint" />
          </mxGeometry>
        </mxCell>
        <mxCell id="gtYnEdTjVLz-L2qjGS6A-872" value="" style="endArrow=none;html=1;rounded=0;exitX=0;exitY=0.25;exitDx=0;exitDy=0;" parent="1" edge="1">
          <mxGeometry width="50" height="50" relative="1" as="geometry">
            <mxPoint x="160" y="460" as="sourcePoint" />
            <mxPoint x="200" y="440" as="targetPoint" />
          </mxGeometry>
        </mxCell>
        <mxCell id="gtYnEdTjVLz-L2qjGS6A-877" value="&lt;font style=&quot;font-size: 20px;&quot;&gt;D&lt;/font&gt;" style="text;html=1;strokeColor=none;fillColor=none;align=center;verticalAlign=middle;whiteSpace=wrap;rounded=0;" parent="1" vertex="1">
          <mxGeometry x="590" y="530" width="20" height="20" as="geometry" />
        </mxCell>
        <mxCell id="gtYnEdTjVLz-L2qjGS6A-878" value="&lt;font style=&quot;font-size: 20px;&quot;&gt;X&lt;/font&gt;" style="text;html=1;strokeColor=none;fillColor=none;align=center;verticalAlign=middle;whiteSpace=wrap;rounded=0;" parent="1" vertex="1">
          <mxGeometry x="125" y="470" width="20" height="20" as="geometry" />
        </mxCell>
        <mxCell id="gtYnEdTjVLz-L2qjGS6A-879" value="&lt;font style=&quot;font-size: 20px;&quot;&gt;Y&lt;/font&gt;" style="text;html=1;strokeColor=none;fillColor=none;align=center;verticalAlign=middle;whiteSpace=wrap;rounded=0;" parent="1" vertex="1">
          <mxGeometry x="115" y="590" width="20" height="20" as="geometry" />
        </mxCell>
        <mxCell id="gtYnEdTjVLz-L2qjGS6A-880" value="&lt;font style=&quot;font-size: 20px;&quot;&gt;Z&lt;/font&gt;" style="text;html=1;strokeColor=none;fillColor=none;align=center;verticalAlign=middle;whiteSpace=wrap;rounded=0;" parent="1" vertex="1">
          <mxGeometry x="705" y="470" width="20" height="20" as="geometry" />
        </mxCell>
        <mxCell id="gtYnEdTjVLz-L2qjGS6A-882" value="" style="endArrow=none;html=1;rounded=0;" parent="1" edge="1">
          <mxGeometry width="50" height="50" relative="1" as="geometry">
            <mxPoint x="60" y="590" as="sourcePoint" />
            <mxPoint x="60" y="570" as="targetPoint" />
          </mxGeometry>
        </mxCell>
        <mxCell id="gtYnEdTjVLz-L2qjGS6A-883" value="" style="endArrow=none;html=1;rounded=0;" parent="1" edge="1">
          <mxGeometry width="50" height="50" relative="1" as="geometry">
            <mxPoint x="60" y="630" as="sourcePoint" />
            <mxPoint x="60" y="610" as="targetPoint" />
          </mxGeometry>
        </mxCell>
        <mxCell id="gtYnEdTjVLz-L2qjGS6A-884" value="" style="endArrow=none;html=1;rounded=0;" parent="1" edge="1">
          <mxGeometry width="50" height="50" relative="1" as="geometry">
            <mxPoint x="780" y="470" as="sourcePoint" />
            <mxPoint x="780" y="450" as="targetPoint" />
          </mxGeometry>
        </mxCell>
        <mxCell id="gtYnEdTjVLz-L2qjGS6A-885" value="" style="endArrow=none;html=1;rounded=0;" parent="1" edge="1">
          <mxGeometry width="50" height="50" relative="1" as="geometry">
            <mxPoint x="780" y="510" as="sourcePoint" />
            <mxPoint x="780" y="490" as="targetPoint" />
          </mxGeometry>
        </mxCell>
        <mxCell id="gtYnEdTjVLz-L2qjGS6A-889" value="1&lt;br&gt;" style="text;html=1;strokeColor=none;fillColor=none;align=center;verticalAlign=middle;whiteSpace=wrap;rounded=0;" parent="1" vertex="1">
          <mxGeometry x="150" y="495" width="10" height="10" as="geometry" />
        </mxCell>
        <mxCell id="gtYnEdTjVLz-L2qjGS6A-890" value="1&lt;br&gt;" style="text;html=1;strokeColor=none;fillColor=none;align=center;verticalAlign=middle;whiteSpace=wrap;rounded=0;" parent="1" vertex="1">
          <mxGeometry x="100" y="575" width="10" height="10" as="geometry" />
        </mxCell>
        <mxCell id="gtYnEdTjVLz-L2qjGS6A-892" value="1&lt;br&gt;" style="text;html=1;strokeColor=none;fillColor=none;align=center;verticalAlign=middle;whiteSpace=wrap;rounded=0;" parent="1" vertex="1">
          <mxGeometry x="460" y="515" width="10" height="10" as="geometry" />
        </mxCell>
        <mxCell id="gtYnEdTjVLz-L2qjGS6A-893" value="1&lt;br&gt;" style="text;html=1;strokeColor=none;fillColor=none;align=center;verticalAlign=middle;whiteSpace=wrap;rounded=0;" parent="1" vertex="1">
          <mxGeometry x="610" y="555" width="10" height="10" as="geometry" />
        </mxCell>
        <mxCell id="gtYnEdTjVLz-L2qjGS6A-894" value="1&lt;br&gt;" style="text;html=1;strokeColor=none;fillColor=none;align=center;verticalAlign=middle;whiteSpace=wrap;rounded=0;" parent="1" vertex="1">
          <mxGeometry x="730" y="495" width="10" height="10" as="geometry" />
        </mxCell>
        <mxCell id="gtYnEdTjVLz-L2qjGS6A-896" value="0" style="text;html=1;strokeColor=none;fillColor=none;align=center;verticalAlign=middle;whiteSpace=wrap;rounded=0;" parent="1" vertex="1">
          <mxGeometry x="105" y="475" width="10" height="10" as="geometry" />
        </mxCell>
        <mxCell id="gtYnEdTjVLz-L2qjGS6A-897" value="0" style="text;html=1;strokeColor=none;fillColor=none;align=center;verticalAlign=middle;whiteSpace=wrap;rounded=0;" parent="1" vertex="1">
          <mxGeometry x="145" y="595" width="10" height="10" as="geometry" />
        </mxCell>
        <mxCell id="gtYnEdTjVLz-L2qjGS6A-899" value="0" style="text;html=1;strokeColor=none;fillColor=none;align=center;verticalAlign=middle;whiteSpace=wrap;rounded=0;" parent="1" vertex="1">
          <mxGeometry x="505" y="535" width="10" height="10" as="geometry" />
        </mxCell>
        <mxCell id="gtYnEdTjVLz-L2qjGS6A-900" value="0" style="text;html=1;strokeColor=none;fillColor=none;align=center;verticalAlign=middle;whiteSpace=wrap;rounded=0;" parent="1" vertex="1">
          <mxGeometry x="565" y="535" width="10" height="10" as="geometry" />
        </mxCell>
        <mxCell id="gtYnEdTjVLz-L2qjGS6A-901" value="0" style="text;html=1;strokeColor=none;fillColor=none;align=center;verticalAlign=middle;whiteSpace=wrap;rounded=0;" parent="1" vertex="1">
          <mxGeometry x="685" y="475" width="10" height="10" as="geometry" />
        </mxCell>
        <mxCell id="gtYnEdTjVLz-L2qjGS6A-903" value="2" style="text;html=1;strokeColor=none;fillColor=none;align=center;verticalAlign=middle;whiteSpace=wrap;rounded=0;" parent="1" vertex="1">
          <mxGeometry x="730" y="455" width="10" height="10" as="geometry" />
        </mxCell>
        <mxCell id="gtYnEdTjVLz-L2qjGS6A-905" value="2" style="text;html=1;strokeColor=none;fillColor=none;align=center;verticalAlign=middle;whiteSpace=wrap;rounded=0;" parent="1" vertex="1">
          <mxGeometry x="610" y="515" width="10" height="10" as="geometry" />
        </mxCell>
        <mxCell id="gtYnEdTjVLz-L2qjGS6A-906" value="2" style="text;html=1;strokeColor=none;fillColor=none;align=center;verticalAlign=middle;whiteSpace=wrap;rounded=0;" parent="1" vertex="1">
          <mxGeometry x="460" y="555" width="10" height="10" as="geometry" />
        </mxCell>
        <mxCell id="gtYnEdTjVLz-L2qjGS6A-909" value="2" style="text;html=1;strokeColor=none;fillColor=none;align=center;verticalAlign=middle;whiteSpace=wrap;rounded=0;" parent="1" vertex="1">
          <mxGeometry x="100" y="615" width="10" height="10" as="geometry" />
        </mxCell>
        <mxCell id="gtYnEdTjVLz-L2qjGS6A-910" value="2" style="text;html=1;strokeColor=none;fillColor=none;align=center;verticalAlign=middle;whiteSpace=wrap;rounded=0;" parent="1" vertex="1">
          <mxGeometry x="150" y="455" width="10" height="10" as="geometry" />
        </mxCell>
        <mxCell id="gtYnEdTjVLz-L2qjGS6A-911" value="&lt;font style=&quot;font-size: 20px;&quot;&gt;C&lt;/font&gt;" style="text;html=1;strokeColor=none;fillColor=none;align=center;verticalAlign=middle;whiteSpace=wrap;rounded=0;" parent="1" vertex="1">
          <mxGeometry x="470" y="530" width="20" height="20" as="geometry" />
        </mxCell>
        <mxCell id="gtYnEdTjVLz-L2qjGS6A-914" value="" style="endArrow=none;html=1;rounded=0;exitX=1;exitY=0.5;exitDx=0;exitDy=0;" parent="1" source="gtYnEdTjVLz-L2qjGS6A-926" edge="1">
          <mxGeometry width="50" height="50" relative="1" as="geometry">
            <mxPoint x="459.9999999999998" y="820" as="sourcePoint" />
            <mxPoint x="160" y="800" as="targetPoint" />
          </mxGeometry>
        </mxCell>
        <mxCell id="gtYnEdTjVLz-L2qjGS6A-915" value="" style="endArrow=none;html=1;rounded=0;entryX=1;entryY=0.5;entryDx=0;entryDy=0;" parent="1" target="gtYnEdTjVLz-L2qjGS6A-923" edge="1">
          <mxGeometry width="50" height="50" relative="1" as="geometry">
            <mxPoint x="680" y="900" as="sourcePoint" />
            <mxPoint x="160" y="880" as="targetPoint" />
          </mxGeometry>
        </mxCell>
        <mxCell id="gtYnEdTjVLz-L2qjGS6A-921" value="" style="triangle;whiteSpace=wrap;html=1;rotation=-180;" parent="1" vertex="1">
          <mxGeometry x="100" y="740" width="60" height="80" as="geometry" />
        </mxCell>
        <mxCell id="gtYnEdTjVLz-L2qjGS6A-922" value="" style="endArrow=none;html=1;rounded=0;exitX=1;exitY=0.5;exitDx=0;exitDy=0;" parent="1" source="gtYnEdTjVLz-L2qjGS6A-921" edge="1">
          <mxGeometry width="50" height="50" relative="1" as="geometry">
            <mxPoint x="790" y="830" as="sourcePoint" />
            <mxPoint x="60" y="780" as="targetPoint" />
          </mxGeometry>
        </mxCell>
        <mxCell id="gtYnEdTjVLz-L2qjGS6A-923" value="" style="triangle;whiteSpace=wrap;html=1;" parent="1" vertex="1">
          <mxGeometry x="100" y="860" width="60" height="80" as="geometry" />
        </mxCell>
        <mxCell id="gtYnEdTjVLz-L2qjGS6A-924" value="" style="endArrow=none;html=1;rounded=0;exitX=1;exitY=0.5;exitDx=0;exitDy=0;" parent="1" edge="1">
          <mxGeometry width="50" height="50" relative="1" as="geometry">
            <mxPoint x="100" y="880" as="sourcePoint" />
            <mxPoint x="60" y="880" as="targetPoint" />
          </mxGeometry>
        </mxCell>
        <mxCell id="gtYnEdTjVLz-L2qjGS6A-925" value="" style="endArrow=none;html=1;rounded=0;exitX=1;exitY=0.5;exitDx=0;exitDy=0;" parent="1" edge="1">
          <mxGeometry width="50" height="50" relative="1" as="geometry">
            <mxPoint x="100" y="920" as="sourcePoint" />
            <mxPoint x="60" y="920" as="targetPoint" />
          </mxGeometry>
        </mxCell>
        <mxCell id="gtYnEdTjVLz-L2qjGS6A-926" value="" style="triangle;whiteSpace=wrap;html=1;rotation=-180;" parent="1" vertex="1">
          <mxGeometry x="680" y="740" width="60" height="80" as="geometry" />
        </mxCell>
        <mxCell id="gtYnEdTjVLz-L2qjGS6A-927" value="" style="endArrow=none;html=1;rounded=0;exitX=0;exitY=0.75;exitDx=0;exitDy=0;" parent="1" source="gtYnEdTjVLz-L2qjGS6A-926" edge="1">
          <mxGeometry width="50" height="50" relative="1" as="geometry">
            <mxPoint x="820" y="1040" as="sourcePoint" />
            <mxPoint x="780" y="760" as="targetPoint" />
          </mxGeometry>
        </mxCell>
        <mxCell id="gtYnEdTjVLz-L2qjGS6A-928" value="" style="endArrow=none;html=1;rounded=0;exitX=0;exitY=0.25;exitDx=0;exitDy=0;" parent="1" source="gtYnEdTjVLz-L2qjGS6A-926" edge="1">
          <mxGeometry width="50" height="50" relative="1" as="geometry">
            <mxPoint x="750" y="780" as="sourcePoint" />
            <mxPoint x="780" y="800" as="targetPoint" />
          </mxGeometry>
        </mxCell>
        <mxCell id="gtYnEdTjVLz-L2qjGS6A-931" value="" style="endArrow=none;html=1;rounded=0;exitX=0;exitY=0.25;exitDx=0;exitDy=0;" parent="1" edge="1">
          <mxGeometry width="50" height="50" relative="1" as="geometry">
            <mxPoint x="160" y="760" as="sourcePoint" />
            <mxPoint x="200" y="740" as="targetPoint" />
          </mxGeometry>
        </mxCell>
        <mxCell id="gtYnEdTjVLz-L2qjGS6A-934" value="&lt;font style=&quot;font-size: 20px;&quot;&gt;X&lt;/font&gt;" style="text;html=1;strokeColor=none;fillColor=none;align=center;verticalAlign=middle;whiteSpace=wrap;rounded=0;" parent="1" vertex="1">
          <mxGeometry x="125" y="770" width="20" height="20" as="geometry" />
        </mxCell>
        <mxCell id="gtYnEdTjVLz-L2qjGS6A-935" value="&lt;font style=&quot;font-size: 20px;&quot;&gt;Y&lt;/font&gt;" style="text;html=1;strokeColor=none;fillColor=none;align=center;verticalAlign=middle;whiteSpace=wrap;rounded=0;" parent="1" vertex="1">
          <mxGeometry x="115" y="890" width="20" height="20" as="geometry" />
        </mxCell>
        <mxCell id="gtYnEdTjVLz-L2qjGS6A-936" value="&lt;font style=&quot;font-size: 20px;&quot;&gt;Z&lt;/font&gt;" style="text;html=1;strokeColor=none;fillColor=none;align=center;verticalAlign=middle;whiteSpace=wrap;rounded=0;" parent="1" vertex="1">
          <mxGeometry x="705" y="770" width="20" height="20" as="geometry" />
        </mxCell>
        <mxCell id="gtYnEdTjVLz-L2qjGS6A-938" value="" style="endArrow=none;html=1;rounded=0;" parent="1" edge="1">
          <mxGeometry width="50" height="50" relative="1" as="geometry">
            <mxPoint x="60" y="890" as="sourcePoint" />
            <mxPoint x="60" y="870" as="targetPoint" />
          </mxGeometry>
        </mxCell>
        <mxCell id="gtYnEdTjVLz-L2qjGS6A-939" value="" style="endArrow=none;html=1;rounded=0;" parent="1" edge="1">
          <mxGeometry width="50" height="50" relative="1" as="geometry">
            <mxPoint x="60" y="930" as="sourcePoint" />
            <mxPoint x="60" y="910" as="targetPoint" />
          </mxGeometry>
        </mxCell>
        <mxCell id="gtYnEdTjVLz-L2qjGS6A-940" value="" style="endArrow=none;html=1;rounded=0;" parent="1" edge="1">
          <mxGeometry width="50" height="50" relative="1" as="geometry">
            <mxPoint x="780" y="770" as="sourcePoint" />
            <mxPoint x="780" y="750" as="targetPoint" />
          </mxGeometry>
        </mxCell>
        <mxCell id="gtYnEdTjVLz-L2qjGS6A-941" value="" style="endArrow=none;html=1;rounded=0;" parent="1" edge="1">
          <mxGeometry width="50" height="50" relative="1" as="geometry">
            <mxPoint x="780" y="810" as="sourcePoint" />
            <mxPoint x="780" y="790" as="targetPoint" />
          </mxGeometry>
        </mxCell>
        <mxCell id="gtYnEdTjVLz-L2qjGS6A-943" value="1&lt;br&gt;" style="text;html=1;strokeColor=none;fillColor=none;align=center;verticalAlign=middle;whiteSpace=wrap;rounded=0;" parent="1" vertex="1">
          <mxGeometry x="150" y="795" width="10" height="10" as="geometry" />
        </mxCell>
        <mxCell id="gtYnEdTjVLz-L2qjGS6A-944" value="1&lt;br&gt;" style="text;html=1;strokeColor=none;fillColor=none;align=center;verticalAlign=middle;whiteSpace=wrap;rounded=0;" parent="1" vertex="1">
          <mxGeometry x="100" y="875" width="10" height="10" as="geometry" />
        </mxCell>
        <mxCell id="gtYnEdTjVLz-L2qjGS6A-947" value="1&lt;br&gt;" style="text;html=1;strokeColor=none;fillColor=none;align=center;verticalAlign=middle;whiteSpace=wrap;rounded=0;" parent="1" vertex="1">
          <mxGeometry x="730" y="795" width="10" height="10" as="geometry" />
        </mxCell>
        <mxCell id="gtYnEdTjVLz-L2qjGS6A-949" value="0" style="text;html=1;strokeColor=none;fillColor=none;align=center;verticalAlign=middle;whiteSpace=wrap;rounded=0;" parent="1" vertex="1">
          <mxGeometry x="105" y="775" width="10" height="10" as="geometry" />
        </mxCell>
        <mxCell id="gtYnEdTjVLz-L2qjGS6A-950" value="0" style="text;html=1;strokeColor=none;fillColor=none;align=center;verticalAlign=middle;whiteSpace=wrap;rounded=0;" parent="1" vertex="1">
          <mxGeometry x="145" y="895" width="10" height="10" as="geometry" />
        </mxCell>
        <mxCell id="gtYnEdTjVLz-L2qjGS6A-953" value="0" style="text;html=1;strokeColor=none;fillColor=none;align=center;verticalAlign=middle;whiteSpace=wrap;rounded=0;" parent="1" vertex="1">
          <mxGeometry x="685" y="775" width="10" height="10" as="geometry" />
        </mxCell>
        <mxCell id="gtYnEdTjVLz-L2qjGS6A-955" value="2" style="text;html=1;strokeColor=none;fillColor=none;align=center;verticalAlign=middle;whiteSpace=wrap;rounded=0;" parent="1" vertex="1">
          <mxGeometry x="730" y="755" width="10" height="10" as="geometry" />
        </mxCell>
        <mxCell id="gtYnEdTjVLz-L2qjGS6A-959" value="2" style="text;html=1;strokeColor=none;fillColor=none;align=center;verticalAlign=middle;whiteSpace=wrap;rounded=0;" parent="1" vertex="1">
          <mxGeometry x="100" y="915" width="10" height="10" as="geometry" />
        </mxCell>
        <mxCell id="gtYnEdTjVLz-L2qjGS6A-960" value="2" style="text;html=1;strokeColor=none;fillColor=none;align=center;verticalAlign=middle;whiteSpace=wrap;rounded=0;" parent="1" vertex="1">
          <mxGeometry x="150" y="755" width="10" height="10" as="geometry" />
        </mxCell>
        <mxCell id="gtYnEdTjVLz-L2qjGS6A-964" value="" style="endArrow=none;html=1;rounded=0;" parent="1" edge="1">
          <mxGeometry width="50" height="50" relative="1" as="geometry">
            <mxPoint x="200" y="150" as="sourcePoint" />
            <mxPoint x="200" y="130" as="targetPoint" />
          </mxGeometry>
        </mxCell>
        <mxCell id="gtYnEdTjVLz-L2qjGS6A-966" value="" style="endArrow=none;html=1;rounded=0;" parent="1" edge="1">
          <mxGeometry width="50" height="50" relative="1" as="geometry">
            <mxPoint x="200" y="450" as="sourcePoint" />
            <mxPoint x="200" y="430" as="targetPoint" />
          </mxGeometry>
        </mxCell>
        <mxCell id="gtYnEdTjVLz-L2qjGS6A-967" value="" style="endArrow=none;html=1;rounded=0;" parent="1" edge="1">
          <mxGeometry width="50" height="50" relative="1" as="geometry">
            <mxPoint x="200" y="750" as="sourcePoint" />
            <mxPoint x="200" y="730" as="targetPoint" />
          </mxGeometry>
        </mxCell>
        <mxCell id="SGPPbOntVV9FJ_RB3rsc-1" value="" style="triangle;whiteSpace=wrap;html=1;rotation=-180;" vertex="1" parent="1">
          <mxGeometry x="680" y="260" width="60" height="80" as="geometry" />
        </mxCell>
        <mxCell id="SGPPbOntVV9FJ_RB3rsc-2" value="" style="endArrow=none;html=1;rounded=0;exitX=0;exitY=0.75;exitDx=0;exitDy=0;" edge="1" parent="1" source="SGPPbOntVV9FJ_RB3rsc-1">
          <mxGeometry width="50" height="50" relative="1" as="geometry">
            <mxPoint x="820" y="560" as="sourcePoint" />
            <mxPoint x="780" y="280" as="targetPoint" />
          </mxGeometry>
        </mxCell>
        <mxCell id="SGPPbOntVV9FJ_RB3rsc-3" value="" style="endArrow=none;html=1;rounded=0;exitX=0;exitY=0.25;exitDx=0;exitDy=0;" edge="1" parent="1" source="SGPPbOntVV9FJ_RB3rsc-1">
          <mxGeometry width="50" height="50" relative="1" as="geometry">
            <mxPoint x="750" y="300" as="sourcePoint" />
            <mxPoint x="780" y="320" as="targetPoint" />
          </mxGeometry>
        </mxCell>
        <mxCell id="SGPPbOntVV9FJ_RB3rsc-4" value="&lt;font style=&quot;font-size: 20px;&quot;&gt;W&lt;br&gt;&lt;/font&gt;" style="text;html=1;strokeColor=none;fillColor=none;align=center;verticalAlign=middle;whiteSpace=wrap;rounded=0;" vertex="1" parent="1">
          <mxGeometry x="705" y="290" width="20" height="20" as="geometry" />
        </mxCell>
        <mxCell id="SGPPbOntVV9FJ_RB3rsc-5" value="" style="endArrow=none;html=1;rounded=0;" edge="1" parent="1">
          <mxGeometry width="50" height="50" relative="1" as="geometry">
            <mxPoint x="780" y="290" as="sourcePoint" />
            <mxPoint x="780" y="270" as="targetPoint" />
          </mxGeometry>
        </mxCell>
        <mxCell id="SGPPbOntVV9FJ_RB3rsc-6" value="" style="endArrow=none;html=1;rounded=0;" edge="1" parent="1">
          <mxGeometry width="50" height="50" relative="1" as="geometry">
            <mxPoint x="780" y="330" as="sourcePoint" />
            <mxPoint x="780" y="310" as="targetPoint" />
          </mxGeometry>
        </mxCell>
        <mxCell id="SGPPbOntVV9FJ_RB3rsc-7" value="1&lt;br&gt;" style="text;html=1;strokeColor=none;fillColor=none;align=center;verticalAlign=middle;whiteSpace=wrap;rounded=0;" vertex="1" parent="1">
          <mxGeometry x="730" y="315" width="10" height="10" as="geometry" />
        </mxCell>
        <mxCell id="SGPPbOntVV9FJ_RB3rsc-8" value="0" style="text;html=1;strokeColor=none;fillColor=none;align=center;verticalAlign=middle;whiteSpace=wrap;rounded=0;" vertex="1" parent="1">
          <mxGeometry x="685" y="295" width="10" height="10" as="geometry" />
        </mxCell>
        <mxCell id="SGPPbOntVV9FJ_RB3rsc-9" value="2" style="text;html=1;strokeColor=none;fillColor=none;align=center;verticalAlign=middle;whiteSpace=wrap;rounded=0;" vertex="1" parent="1">
          <mxGeometry x="730" y="275" width="10" height="10" as="geometry" />
        </mxCell>
        <mxCell id="SGPPbOntVV9FJ_RB3rsc-20" value="" style="triangle;whiteSpace=wrap;html=1;rotation=-180;" vertex="1" parent="1">
          <mxGeometry x="679.62" y="560" width="60" height="80" as="geometry" />
        </mxCell>
        <mxCell id="SGPPbOntVV9FJ_RB3rsc-21" value="" style="endArrow=none;html=1;rounded=0;exitX=0;exitY=0.75;exitDx=0;exitDy=0;" edge="1" parent="1" source="SGPPbOntVV9FJ_RB3rsc-20">
          <mxGeometry width="50" height="50" relative="1" as="geometry">
            <mxPoint x="819.62" y="860" as="sourcePoint" />
            <mxPoint x="779.62" y="580" as="targetPoint" />
          </mxGeometry>
        </mxCell>
        <mxCell id="SGPPbOntVV9FJ_RB3rsc-22" value="" style="endArrow=none;html=1;rounded=0;exitX=0;exitY=0.25;exitDx=0;exitDy=0;" edge="1" parent="1" source="SGPPbOntVV9FJ_RB3rsc-20">
          <mxGeometry width="50" height="50" relative="1" as="geometry">
            <mxPoint x="749.62" y="600" as="sourcePoint" />
            <mxPoint x="779.62" y="620" as="targetPoint" />
          </mxGeometry>
        </mxCell>
        <mxCell id="SGPPbOntVV9FJ_RB3rsc-23" value="&lt;font style=&quot;font-size: 20px;&quot;&gt;W&lt;br&gt;&lt;/font&gt;" style="text;html=1;strokeColor=none;fillColor=none;align=center;verticalAlign=middle;whiteSpace=wrap;rounded=0;" vertex="1" parent="1">
          <mxGeometry x="704.62" y="590" width="20" height="20" as="geometry" />
        </mxCell>
        <mxCell id="SGPPbOntVV9FJ_RB3rsc-24" value="" style="endArrow=none;html=1;rounded=0;" edge="1" parent="1">
          <mxGeometry width="50" height="50" relative="1" as="geometry">
            <mxPoint x="779.62" y="590" as="sourcePoint" />
            <mxPoint x="779.62" y="570" as="targetPoint" />
          </mxGeometry>
        </mxCell>
        <mxCell id="SGPPbOntVV9FJ_RB3rsc-25" value="" style="endArrow=none;html=1;rounded=0;" edge="1" parent="1">
          <mxGeometry width="50" height="50" relative="1" as="geometry">
            <mxPoint x="779.62" y="630" as="sourcePoint" />
            <mxPoint x="779.62" y="610" as="targetPoint" />
          </mxGeometry>
        </mxCell>
        <mxCell id="SGPPbOntVV9FJ_RB3rsc-26" value="1&lt;br&gt;" style="text;html=1;strokeColor=none;fillColor=none;align=center;verticalAlign=middle;whiteSpace=wrap;rounded=0;" vertex="1" parent="1">
          <mxGeometry x="729.62" y="615" width="10" height="10" as="geometry" />
        </mxCell>
        <mxCell id="SGPPbOntVV9FJ_RB3rsc-27" value="0" style="text;html=1;strokeColor=none;fillColor=none;align=center;verticalAlign=middle;whiteSpace=wrap;rounded=0;" vertex="1" parent="1">
          <mxGeometry x="684.62" y="595" width="10" height="10" as="geometry" />
        </mxCell>
        <mxCell id="SGPPbOntVV9FJ_RB3rsc-28" value="2" style="text;html=1;strokeColor=none;fillColor=none;align=center;verticalAlign=middle;whiteSpace=wrap;rounded=0;" vertex="1" parent="1">
          <mxGeometry x="729.62" y="575" width="10" height="10" as="geometry" />
        </mxCell>
        <mxCell id="SGPPbOntVV9FJ_RB3rsc-38" value="" style="triangle;whiteSpace=wrap;html=1;rotation=-180;" vertex="1" parent="1">
          <mxGeometry x="679.62" y="860" width="60" height="80" as="geometry" />
        </mxCell>
        <mxCell id="SGPPbOntVV9FJ_RB3rsc-39" value="" style="endArrow=none;html=1;rounded=0;exitX=0;exitY=0.75;exitDx=0;exitDy=0;" edge="1" parent="1" source="SGPPbOntVV9FJ_RB3rsc-38">
          <mxGeometry width="50" height="50" relative="1" as="geometry">
            <mxPoint x="819.62" y="1160" as="sourcePoint" />
            <mxPoint x="779.62" y="880" as="targetPoint" />
          </mxGeometry>
        </mxCell>
        <mxCell id="SGPPbOntVV9FJ_RB3rsc-40" value="" style="endArrow=none;html=1;rounded=0;exitX=0;exitY=0.25;exitDx=0;exitDy=0;" edge="1" parent="1" source="SGPPbOntVV9FJ_RB3rsc-38">
          <mxGeometry width="50" height="50" relative="1" as="geometry">
            <mxPoint x="749.62" y="900" as="sourcePoint" />
            <mxPoint x="779.62" y="920" as="targetPoint" />
          </mxGeometry>
        </mxCell>
        <mxCell id="SGPPbOntVV9FJ_RB3rsc-41" value="&lt;font style=&quot;font-size: 20px;&quot;&gt;W&lt;br&gt;&lt;/font&gt;" style="text;html=1;strokeColor=none;fillColor=none;align=center;verticalAlign=middle;whiteSpace=wrap;rounded=0;" vertex="1" parent="1">
          <mxGeometry x="704.62" y="890" width="20" height="20" as="geometry" />
        </mxCell>
        <mxCell id="SGPPbOntVV9FJ_RB3rsc-42" value="" style="endArrow=none;html=1;rounded=0;" edge="1" parent="1">
          <mxGeometry width="50" height="50" relative="1" as="geometry">
            <mxPoint x="779.62" y="890" as="sourcePoint" />
            <mxPoint x="779.62" y="870" as="targetPoint" />
          </mxGeometry>
        </mxCell>
        <mxCell id="SGPPbOntVV9FJ_RB3rsc-43" value="" style="endArrow=none;html=1;rounded=0;" edge="1" parent="1">
          <mxGeometry width="50" height="50" relative="1" as="geometry">
            <mxPoint x="779.62" y="930" as="sourcePoint" />
            <mxPoint x="779.62" y="910" as="targetPoint" />
          </mxGeometry>
        </mxCell>
        <mxCell id="SGPPbOntVV9FJ_RB3rsc-44" value="1&lt;br&gt;" style="text;html=1;strokeColor=none;fillColor=none;align=center;verticalAlign=middle;whiteSpace=wrap;rounded=0;" vertex="1" parent="1">
          <mxGeometry x="729.62" y="915" width="10" height="10" as="geometry" />
        </mxCell>
        <mxCell id="SGPPbOntVV9FJ_RB3rsc-45" value="0" style="text;html=1;strokeColor=none;fillColor=none;align=center;verticalAlign=middle;whiteSpace=wrap;rounded=0;" vertex="1" parent="1">
          <mxGeometry x="684.62" y="895" width="10" height="10" as="geometry" />
        </mxCell>
        <mxCell id="SGPPbOntVV9FJ_RB3rsc-46" value="2" style="text;html=1;strokeColor=none;fillColor=none;align=center;verticalAlign=middle;whiteSpace=wrap;rounded=0;" vertex="1" parent="1">
          <mxGeometry x="729.62" y="875" width="10" height="10" as="geometry" />
        </mxCell>
        <mxCell id="SGPPbOntVV9FJ_RB3rsc-47" value="" style="rounded=1;whiteSpace=wrap;html=1;dashed=1;fillColor=none;fillStyle=dashed;strokeColor=#FF99CC;strokeWidth=2;opacity=75;movable=1;resizable=1;rotatable=1;deletable=1;editable=1;locked=0;connectable=1;" vertex="1" parent="1">
          <mxGeometry x="40" y="840" width="760" height="120" as="geometry" />
        </mxCell>
        <mxCell id="SGPPbOntVV9FJ_RB3rsc-48" value="&lt;font style=&quot;font-size: 16px;&quot;&gt;&lt;b&gt;Image 1.&lt;/b&gt; Threads &lt;font color=&quot;#ff0000&quot;&gt;R&lt;/font&gt; and &lt;font color=&quot;#00ab00&quot;&gt;G&lt;/font&gt;&amp;nbsp;both atomically take a redex.&lt;br&gt;The active pairs &lt;font color=&quot;#ff0000&quot;&gt;&lt;i&gt;A-B&lt;/i&gt;&lt;/font&gt; and &lt;font color=&quot;#00ab00&quot;&gt;&lt;i&gt;C-D&lt;/i&gt;&lt;/font&gt; overlap on&amp;nbsp;&lt;i&gt;&lt;font color=&quot;#cccc00&quot;&gt;B1&lt;/font&gt;&lt;/i&gt;, &lt;i&gt;&lt;font color=&quot;#cccc00&quot;&gt;B2&lt;/font&gt;&lt;/i&gt;, &lt;i&gt;&lt;font color=&quot;#cccc00&quot;&gt;C1&lt;/font&gt;&lt;/i&gt;, &lt;i&gt;&lt;font color=&quot;#cccc00&quot;&gt;C2&lt;/font&gt;&lt;/i&gt;.&lt;/font&gt;" style="text;html=1;strokeColor=none;fillColor=none;align=center;verticalAlign=middle;whiteSpace=wrap;rounded=0;" vertex="1" parent="1">
          <mxGeometry x="60" y="80" width="720" height="40" as="geometry" />
        </mxCell>
        <mxCell id="SGPPbOntVV9FJ_RB3rsc-49" value="&lt;font style=&quot;font-size: 16px;&quot;&gt;&lt;b&gt;Image 2.&lt;/b&gt; Thread&amp;nbsp;&lt;font color=&quot;#ff0000&quot;&gt;R&lt;/font&gt;&amp;nbsp;&lt;i&gt;locks&lt;/i&gt; its surroundings and&amp;nbsp;reduces its active pair.&lt;br&gt;&lt;/font&gt;" style="text;html=1;strokeColor=none;fillColor=none;align=center;verticalAlign=middle;whiteSpace=wrap;rounded=0;" vertex="1" parent="1">
          <mxGeometry x="60" y="380" width="720" height="40" as="geometry" />
        </mxCell>
        <mxCell id="SGPPbOntVV9FJ_RB3rsc-50" value="&lt;font style=&quot;font-size: 16px;&quot;&gt;&lt;b&gt;Image 3.&lt;/b&gt; Thread &lt;font color=&quot;#00ab00&quot;&gt;G&lt;/font&gt;&amp;nbsp;&lt;i&gt;locks&lt;/i&gt; its surroundings and&amp;nbsp;reduces its active pair.&lt;br&gt;A new active pair, &lt;font color=&quot;#ff99cc&quot;&gt;&lt;i&gt;Y-W&lt;/i&gt;&lt;/font&gt;, is formed, allowing a thread &lt;font color=&quot;#ff99cc&quot;&gt;P&lt;/font&gt; to reduce it.&lt;br&gt;&lt;/font&gt;" style="text;html=1;strokeColor=none;fillColor=none;align=center;verticalAlign=middle;whiteSpace=wrap;rounded=0;" vertex="1" parent="1">
          <mxGeometry x="55" y="680" width="720" height="40" as="geometry" />
        </mxCell>
        <mxCell id="SGPPbOntVV9FJ_RB3rsc-51" value="&lt;font style=&quot;font-size: 20px;&quot;&gt;Lock-Based Evaluator&lt;/font&gt;" style="text;html=1;strokeColor=none;fillColor=none;align=center;verticalAlign=middle;whiteSpace=wrap;rounded=0;" vertex="1" parent="1">
          <mxGeometry x="40" y="20" width="740" height="40" as="geometry" />
        </mxCell>
      </root>
    </mxGraphModel>
  </diagram>
</mxfile>
